<?xml version="1.0" standalone="no"?>
<!DOCTYPE svg PUBLIC "-//W3C//DTD SVG 20010904//EN"
 "http://www.w3.org/TR/2001/REC-SVG-20010904/DTD/svg10.dtd">
<svg version="1.0" xmlns="http://www.w3.org/2000/svg"
 width="70.000000pt" height="70.000000pt" viewBox="0 0 70.000000 70.000000"
 preserveAspectRatio="xMidYMid meet">
<metadata>
Created by potrace 1.14, written by Peter Selinger 2001-2017
</metadata>
<g transform="translate(0.000000,70.000000) scale(0.100000,-0.100000)"
fill="#000000" stroke="none">
<path d="M318 683 c-36 -18 -78 -74 -81 -107 -2 -30 17 -36 21 -6 2 12 21 39
43 61 34 34 42 38 58 27 46 -29 65 -134 33 -185 -17 -28 3 -43 23 -17 17 22
17 25 20 84 2 52 -14 97 -47 126 -34 31 -40 32 -70 17z"/>
<path d="M477 559 c-9 -6 -15 -15 -12 -20 4 -5 10 -7 15 -4 37 23 140 -5 140
-37 0 -53 -64 -117 -123 -123 -17 -2 -35 -4 -39 -4 -5 -1 -8 -5 -8 -11 0 -12
61 -13 92 -1 35 14 83 62 95 96 24 65 24 63 -21 90 -45 26 -107 33 -139 14z"/>
<path d="M78 538 c-32 -11 -42 -37 -34 -82 8 -42 65 -121 79 -107 6 6 0 21
-17 44 -14 19 -29 53 -32 75 -5 40 -5 41 28 47 65 12 114 -6 160 -59 31 -37
43 -32 22 9 -30 62 -132 98 -206 73z"/>
<path d="M325 463 c-3 -9 1 -23 8 -32 8 -9 14 -24 14 -33 0 -20 -13 -24 -19
-7 -2 5 -10 11 -18 13 -8 1 -25 7 -37 14 -19 10 -23 9 -28 -8 -9 -27 3 -42 26
-35 10 4 26 2 34 -3 13 -7 9 -14 -25 -37 -24 -17 -40 -35 -38 -44 4 -22 29
-20 42 4 11 20 26 35 36 35 3 0 6 -19 7 -41 2 -57 8 -68 32 -62 25 6 27 20 5
44 -10 11 -14 25 -10 36 4 10 10 13 14 8 9 -13 58 -35 78 -35 10 0 14 8 12 23
-2 16 -9 21 -26 19 -13 -1 -30 2 -38 6 -12 7 -6 15 26 36 26 17 40 33 38 44
-6 29 -32 24 -51 -9 -21 -38 -28 -34 -34 23 -3 24 -7 45 -9 47 -11 12 -33 8
-39 -6z"/>
<path d="M146 333 c-54 -28 -89 -78 -97 -132 -7 -44 73 -77 154 -65 56 9 40
29 -20 25 -32 -1 -63 4 -82 14 l-31 16 15 36 c9 20 21 43 27 50 17 21 63 43
100 47 17 2 34 8 36 15 6 17 -68 13 -102 -6z"/>
<path d="M570 341 c0 -5 7 -15 16 -22 33 -27 54 -112 32 -125 -20 -13 -39 -15
-84 -9 -32 5 -52 16 -83 47 -43 43 -61 46 -40 6 20 -38 80 -77 130 -85 48 -7
108 14 115 42 7 29 -16 103 -42 134 -19 21 -44 28 -44 12z"/>
<path d="M288 248 c-44 -67 -29 -170 32 -222 30 -24 33 -25 60 -11 31 16 69
62 88 107 9 21 8 27 -4 32 -13 5 -34 -28 -34 -54 0 -5 -16 -22 -36 -39 -30
-24 -40 -27 -55 -18 -40 25 -64 137 -36 174 5 7 7 22 5 35 -3 22 -3 22 -20 -4z"/>
</g>
</svg>
