<?xml version="1.0" encoding="UTF-8" standalone="no"?>
<svg
   version="1.1"
   id="logo"
   viewBox="0 0 3610 694"
   xmlns="http://www.w3.org/2000/svg"
   xmlns:svg="http://www.w3.org/2000/svg">
  <path
     style="display:inline;fill:#a73173;fill-opacity:1"
     d="m 324.19519,678.36899 c -22.54277,-23.31558 -44.99746,-54.59702 -63.55945,-88.54416 l -3.64992,-6.67516 -12.3156,5.84713 c -29.51132,14.01124 -58.41395,24.47284 -84.35006,30.53136 -18.27113,4.26803 -26.12654,5.16482 -28.6394,3.26954 -2.38888,-1.80177 -4.29628,-15.26297 -5.63916,-39.7977 -1.11605,-20.39025 -0.2165,-45.05674 2.51083,-68.84967 0.9011,-7.86108 1.48293,-14.44476 1.29297,-14.63039 C 129.65543,499.3343 124.1,498.22328 117.5,497.05101 80.947274,490.55862 47.245175,480.54377 21.290992,468.46175 9.5788413,463.00959 9.1383756,461.8916 14.451332,451.10133 27.65412,424.28734 49.603823,393.3405 76.25662,363.96219 l 10.467415,-11.53782 -9.612017,-9.97306 C 51.268445,315.637 30.397559,288.02376 14.870691,260.10287 11.641811,254.2966 9,248.36791 9,246.928 9,243.37643 11.015289,241.78883 22.05185,236.64607 49.371012,223.91602 77.961559,214.87273 112.5,208.03701 l 14,-2.77083 -0.13145,-3.88309 c -0.0723,-2.1357 -1.0933,-11.98309 -2.2689,-21.88309 -2.80456,-23.61792 -3.66937,-51.83472 -2.19928,-71.75722 C 123.89655,80.690799 124.4751,79.388893 134,80.514726 c 29.6971,3.510162 80.77059,19.720724 112.33699,35.655384 3.22597,1.62846 5.9921,2.81888 6.14697,2.64537 0.15488,-0.17352 1.96346,-3.69048 4.01908,-7.81548 15.07019,-30.241215 40.97473,-67.73833 62.2183,-90.061688 C 326.21454,13.064242 327.63733,12 330.67103,12 c 2.98067,0 4.36155,0.974879 10.26935,7.25 21.63266,22.977665 39.06443,47.144727 56.80259,78.75 4.16721,7.425 7.71607,13.67376 7.88635,13.88613 0.17028,0.21237 8.08585,-3.24329 17.59014,-7.67925 31.90036,-14.888907 57.855,-23.98152 84.53339,-29.614327 13.26463,-2.80066 16.46913,-2.51301 18.2407,1.637369 1.60341,3.756411 3.89214,23.343416 5.10495,43.688228 1.2223,20.50415 0.24,47.6365 -2.59044,71.55108 -1.51589,12.80786 -1.35447,13.48407 3.22649,13.51546 3.34256,0.0229 31.0716,5.74372 44.2283,9.1248 25.27547,6.49543 68.422,22.87383 74.03595,28.10401 3.29072,3.06578 2.47568,7.14173 -3.58868,17.94664 -15.30994,27.27783 -41.87392,62.36616 -62.26922,82.25133 l -5.03747,4.91147 12.09815,12.58853 c 23.05878,23.99344 41.16397,47.38478 55.89814,72.2187 9.53512,16.07109 9.35752,18.08624 -2.10391,23.87194 -27.81951,14.04325 -67.17005,27.0131 -103.3463,34.06272 l -11.85048,2.30929 0.5995,3.56294 c 1.37098,8.14787 3.60438,28.48178 4.56512,41.56294 2.44491,33.2894 -0.35494,79.89129 -5.08403,84.62038 -2.36711,2.36711 -4.33103,2.35185 -17.21106,-0.13374 -29.19397,-5.63385 -67.18047,-18.6961 -95.02104,-32.67447 -3.76887,-1.89229 -6.95608,-3.29915 -7.0827,-3.12635 -0.12661,0.1728 -3.06594,5.71418 -6.53185,12.31418 -13.89463,26.45905 -30.08591,51.13306 -46.75584,71.25159 -10.41153,12.56541 -17.51437,19.24441 -20.48429,19.26195 -1.61156,0.01 -5.35473,-3.15332 -12.59765,-10.64455 z M 344.15273,663.75 c 15.76832,-18.3019 33.9772,-45.656 47.50517,-71.36414 l 6.49493,-12.34278 -4.69009,-2.77154 c -28.628,-16.91727 -48.48601,-38.44283 -60.08998,-65.13598 l -3.29207,-7.57291 -1.62042,3.96867 c -10.55868,25.86 -26.05704,44.70024 -50.59862,61.50909 l -8.9193,6.10894 4.21081,7.67533 c 12.8945,23.50367 30.1616,49.17359 45.18607,67.17532 8.68333,10.40402 17.68732,20 18.76618,20 0.44053,0 3.61182,-3.2625 7.04732,-7.25 z M 158.02509,605.95967 c 46.94873,-11.44215 96.87756,-34.45976 123.98834,-57.15968 11.0362,-9.24064 22.17103,-23.30553 28.76582,-36.33539 3.28252,-6.48554 8.85884,-23.33587 10.68407,-32.28476 1.49514,-7.33053 1.54267,-9.73237 0.4198,-21.21378 l -1.26625,-12.94731 -3.55843,-0.58868 c -9.68625,-1.6024 -20.43343,-4.95159 -28.55844,-8.89978 -4.95,-2.40535 -9.28115,-4.07118 -9.62478,-3.70183 -0.34363,0.36935 -17.37765,23.7431 -37.85338,51.94168 -20.47573,28.19858 -38.12399,51.74935 -39.21836,52.33504 -4.84872,2.59495 -11.09405,-2.84773 -9.15683,-7.97999 0.55491,-1.47013 17.76717,-25.74398 38.24947,-53.94189 l 37.24054,-51.26893 -7.81833,-8.2779 c -4.50165,-4.76626 -10.12396,-12.1872 -13.25333,-17.49319 -3.50661,-5.94563 -5.90546,-9.03474 -6.76097,-8.70645 -0.72929,0.27985 -6.60854,1.48248 -13.06501,2.6725 -13.17899,2.42909 -16.09403,3.66791 -28.3886,12.06447 -40.35489,27.56031 -57.26478,70.2552 -59.53876,150.3262 -0.53524,18.84703 0.71131,47.45181 2.29877,52.75 0.70144,2.34107 1.90158,2.24673 16.41466,-1.29033 z M 520.66468,601.25 c 0.45943,-4.2625 0.8127,-21.7 0.78504,-38.75 -0.0426,-26.29125 -0.38948,-33.50627 -2.28344,-47.5 -1.22825,-9.075 -2.63576,-18.075 -3.12781,-20 -6.80148,-26.60875 -9.89394,-35.81959 -16.27613,-48.4782 -9.31685,-18.47928 -25.76418,-35.37795 -46.07789,-47.34234 -6.98218,-4.11238 -9.87377,-5.14915 -19.68445,-7.05783 -6.325,-1.23054 -12.26773,-2.46036 -13.20607,-2.73293 -1.26683,-0.368 -2.39666,0.86981 -4.38844,4.80785 -4.27352,8.44942 -10.22954,16.66454 -16.96557,23.40057 l -6.24948,6.24948 37.90478,52.17943 c 41.4744,57.09334 41.4362,57.02533 34.1753,60.84847 -5.06866,2.66884 -5.61083,2.04032 -45.21602,-52.41701 l -38.07935,-52.35929 -9.23758,4.44553 c -8.62077,4.1487 -22.36124,8.43652 -27.14753,8.47158 -4.10101,0.0301 -4.6357,1.3585 -6.25947,15.55167 -1.81739,15.88558 -1.34566,20.30006 3.81714,35.72121 10.44099,31.18694 30.94275,53.86912 66.35229,73.40904 30.09143,16.60525 65.26126,29.66165 104,38.60884 6.10583,1.41022 6.26953,1.249 7.16468,-7.05607 z m -388.10864,-119 c 7.13053,-33.00391 22.87609,-61.70491 43.11117,-78.58303 8.20892,-6.84707 8.08772,-7.35471 -1.80674,-7.56729 -21.52402,-0.46244 -50.2508,-12.60746 -74.111004,-31.33242 l -2.750534,-2.15856 -3.597068,3.44565 c -5.366087,5.1402 -20.965496,23.0679 -30.183767,34.68885 C 50.539736,416.72609 28,451.81568 28,455.57031 c 0,2.01442 27.171801,12.22715 49.350493,18.54876 12.641563,3.60324 46.495077,10.73389 51.380457,10.82239 2.73432,0.0495 3.32227,-0.36416 3.82509,-2.69146 z M 540,476.46206 c 14.87565,-2.81897 40.02605,-9.5424 55,-14.70309 13.61278,-4.69158 40.53076,-15.88973 42.19429,-17.55326 0.98678,-0.98678 -10.64243,-19.4991 -21.48838,-34.20697 -9.83625,-13.33864 -26.76078,-32.84831 -38.52911,-44.41425 l -8.05402,-7.91551 -3.64848,2.91551 c -18.43278,14.7297 -35.89355,24.90472 -50.9743,29.70455 -10.71511,3.41036 -16.23397,4.55431 -27.36819,5.67286 -5.1525,0.51763 -9.53009,1.10304 -9.72797,1.30093 -0.19789,0.19788 1.88941,2.07505 4.63844,4.17149 11.20099,8.54199 24.40299,25.38004 32.30403,41.2011 3.46393,6.93618 9.47644,23.50388 11.65775,32.12336 0.92455,3.65337 1.3918,4.19164 3.28685,3.78642 1.215,-0.25981 6.03409,-1.19722 10.70909,-2.08314 z M 350.5,430.03582 c 16.77317,-4.22689 34.02465,-15.22731 44.74066,-28.52892 6.29878,-7.81857 13.32116,-21.58372 15.93384,-31.23324 2.82113,-10.4194 3.03912,-29.66608 0.45048,-39.77366 -2.58565,-10.09589 -10.58449,-25.9378 -16.99904,-33.667 -11.02625,-13.28609 -27.22741,-23.54116 -44.12594,-27.93101 -9.50841,-2.47007 -26.83008,-2.94047 -36,-0.97765 -9.41752,2.01582 -20.74457,6.75002 -28.92118,12.08777 -38.99532,25.45642 -49.60642,77.66055 -23.57657,115.9912 11.8723,17.48274 32.70365,31.3284 52.49775,34.89291 3.3,0.59426 7.125,1.27915 8.5,1.52199 4.93212,0.87106 19.6489,-0.40389 27.5,-2.38239 z M 322.82609,420.25 c -2.5293,-2.6125 -5.75817,-6.62708 -7.17527,-8.92129 C 312.49457,406.21889 309,396.11051 309,392.09056 c 0,-1.63489 -0.38007,-3.20742 -0.8446,-3.49452 -0.46453,-0.28709 -3.21709,0.37949 -6.11681,1.4813 -11.65057,4.42686 -32.31311,3.12147 -36.35489,-2.29679 -1.98679,-2.66342 -1.99263,-2.84878 -0.28342,-8.99646 2.65483,-9.5489 7.23284,-17.22098 14.06482,-23.5706 l 6.14754,-5.71349 -6.27749,-6.09387 c -4.73571,-4.59719 -7.2552,-8.15844 -10.25839,-14.5 -5.42369,-11.45271 -5.99006,-15.08374 -2.84357,-18.23022 5.06477,-5.06478 25.2096,-6.11097 36.92401,-1.9176 l 5.65721,2.02509 1.23389,-6.53938 C 312.59654,290.73885 324.02269,274 330.69325,274 c 2.49097,0 4.15945,1.15371 8.59134,5.94068 6.77975,7.32293 11.13446,15.82486 12.75757,24.90728 l 1.23605,6.91651 4.1274,-1.82574 c 10.53387,-4.65963 31.09786,-4.47694 37.20962,0.33057 2.39713,1.88558 2.57228,2.50326 2.02678,7.14732 -0.9406,8.00763 -6.96667,19.10021 -14.29841,26.32 l -6.33332,6.23662 6.40529,6.40529 c 7.10873,7.10874 13.13782,18.08395 14.20292,25.85467 0.51083,3.72696 0.26439,4.88392 -1.39346,6.54177 -4.6802,4.6802 -25.09748,5.75071 -36.37378,1.90715 l -6.64876,-2.26625 -0.65197,4.91485 c -1.25095,9.43012 -6.43067,19.77917 -13.97364,27.91928 -5.07636,5.47822 -8.71789,5.23135 -14.75079,-1 z M 334.96254,401 c 5.09322,-9.87071 4.69528,-21.50521 -1.01905,-29.79368 l -3.33836,-4.8422 -3.41836,4.47829 c -1.8801,2.46306 -3.81625,5.86566 -4.30256,7.56134 -2.19526,7.65441 0.12717,19.59037 5.19716,26.71053 2.14723,3.01551 2.31065,3.07224 3.66137,1.27105 0.7776,-1.03693 2.22651,-3.46033 3.2198,-5.38533 z m 45.55594,-22.0299 c 0.9711,-1.57127 -3.90137,-9.17985 -8.59313,-13.41858 -2.30193,-2.07965 -6.58319,-4.87897 -9.51392,-6.2207 -4.53316,-2.07535 -6.21003,-2.33978 -11.23345,-1.77145 l -5.90486,0.66806 2.11344,5.46494 c 2.53102,6.54472 8.60897,11.56226 17.41771,14.37886 6.30307,2.01541 14.72637,2.49723 15.71421,0.89887 z M 300,376.05145 c 7.77537,-3.93933 10.98986,-6.9715 13.56594,-12.79648 1.35298,-3.05932 2.32305,-5.69932 2.1557,-5.86666 -0.16734,-0.16734 -3.21067,-0.41067 -6.76295,-0.54073 -5.66921,-0.20757 -7.2329,0.17649 -12.79252,3.14198 -6.28985,3.35499 -11.403,8.52762 -14.54164,14.71078 -0.89349,1.76019 -1.62453,3.50551 -1.62453,3.87849 0,0.37298 3.4875,0.46987 7.75,0.21532 5.36349,-0.32029 9.13571,-1.16487 12.25,-2.7427 z m 63.5,-35.90149 c 6.60302,-3.13475 13.11872,-9.52211 16.52556,-16.20006 l 2.16764,-4.24893 -7.94524,0.54458 c -13.29756,0.91144 -21.99979,6.30861 -26.76888,16.60221 l -2.33895,5.04838 4.67993,0.37168 c 2.57397,0.20443 5.35494,0.45244 6.17994,0.55114 0.825,0.0987 4.2,-1.10235 7.5,-2.669 z M 314.32841,336.25 c -1.40852,-3.1625 -3.97113,-6.97577 -5.69468,-8.47393 -6.44473,-5.60195 -18.42421,-9.46881 -25.32413,-8.17437 l -3.31294,0.62151 2.61207,4.79923 c 3.31677,6.09399 7.4453,10.08486 14.39127,13.91139 4.67325,2.57448 6.58149,3.03266 12.69468,3.04805 l 7.19467,0.0181 -2.56094,-5.75 z m 23.1439,-12.90113 c 3.47205,-7.16172 0.81731,-23.41293 -4.9129,-30.0747 l -2.26012,-2.62754 -3.39965,6.90566 c -3.10461,6.30637 -3.39964,7.68852 -3.39964,15.92668 0,8.64601 0.1455,9.23864 3.5,14.25567 l 3.5,5.23464 2.72231,-3.23464 c 1.49727,-1.77905 3.40977,-4.65265 4.25,-6.38577 z m -115.62256,52.5535 c 12.4028,-5.59753 14.11519,-6.65379 13.62177,-8.40237 -1.40098,-4.96473 -1.56275,-26.31912 -0.25462,-33.60949 l 1.36539,-7.60948 -61.04115,-19.77119 C 141.96852,295.63569 113.7125,286.05272 112.75,285.21434 c -2.21078,-1.92567 -2.26206,-6.99104 -0.095,-9.3856 0.91024,-1.00581 2.97607,-1.82874 4.59072,-1.82874 1.61465,0 29.88844,8.775 62.83063,19.5 32.94219,10.725 60.10531,19.5 60.36249,19.5 0.25717,0 1.35576,-2.00788 2.44132,-4.46196 3.14247,-7.10409 10.82705,-18.37955 16.77896,-24.6195 l 5.486,-5.7515 -6.70051,-12.11941 C 250.77106,252.16827 245.10286,246.28756 229,235.49905 c -22.26264,-14.9154 -43.0052,-20.35408 -73.25916,-19.20848 -33.38851,1.2643 -82.090467,13.06112 -118.585007,28.72422 l -12.114584,5.19946 2.66168,4.64287 c 15.650375,27.29959 34.139526,51.6187 57.796797,76.02115 30.783934,31.7536 55.065394,46.68196 83.085024,51.08107 3.25339,0.51079 13.37706,0.79746 22.49706,0.63705 l 16.5818,-0.29166 z m 270.76926,5.57156 c 17.01571,-2.92391 30.2606,-8.44249 46.68151,-19.45017 5.60971,-3.76044 12.89948,-9.25693 16.19948,-12.2144 3.3,-2.95747 7.8675,-6.82663 10.14999,-8.59811 5.13811,-3.98779 24.92255,-25.79654 36.49753,-40.2319 8.78164,-10.95174 25.06773,-34.82335 30.80853,-45.15811 l 3.15446,-5.67877 -4.80525,-2.16906 c -33.35714,-15.05723 -78.46092,-27.42904 -113.22521,-31.05728 -15.55833,-1.62377 -39.03673,-0.6669 -49.94313,2.03545 -17.50452,4.33721 -31.78821,11.63961 -47.61467,24.34253 -8.62727,6.92458 -9.26859,7.72729 -16.42787,20.56213 -5.16431,9.25833 -7.16544,13.75403 -6.52225,14.65275 0.51033,0.71309 3.9639,5.03384 7.67459,9.60166 3.7107,4.56783 8.61249,11.92408 10.89287,16.34724 2.28038,4.42316 4.26128,8.18404 4.402,8.35751 0.14073,0.17346 27.32529,-8.48904 60.41014,-19.25 C 514.03659,282.80443 542.34615,274 543.86188,274 c 1.51572,0 3.54416,0.57642 4.50764,1.28094 2.41574,1.76642 2.43576,7.376 0.0346,9.69129 -1.09551,1.05633 -27.54971,10.14652 -62.29453,21.40564 -33.21472,10.76328 -60.58317,19.76238 -60.81877,19.99798 -0.23561,0.2356 0.0526,3.03007 0.6404,6.20992 1.18963,6.43529 1.3415,26.72694 0.24625,32.90151 l -0.70726,3.98728 13.01489,5.92773 c 8.13288,3.70417 15.07801,6.18579 18.5149,6.6157 10.03862,1.25568 26.61922,1.00242 35.61901,-0.54406 z M 304.5,256.6201 c 4.95,-1.36777 11.1375,-2.7694 13.75,-3.11475 l 4.75,-0.6279 v -64.21622 c 0,-56.50222 0.187,-64.4832 1.5567,-66.43872 1.8888,-2.69664 6.93291,-2.99438 9.61456,-0.56752 1.73578,1.57086 1.82874,4.94613 1.82874,66.40181 v 64.74683 l 6.25,0.71935 c 9.20343,1.05929 20.04572,4.11961 28.84418,8.1415 l 7.77139,3.5524 5.92497,-6.35844 c 12.0877,-12.97204 13.75666,-15.36586 17.46181,-25.04593 4.86853,-12.71949 7.56285,-23.27513 8.96832,-35.13548 2.00549,-16.9237 -1.39907,-37.41629 -9.7904,-58.92998 -1.98372,-5.08588 -4.62797,-12.00055 -5.87611,-15.36595 -7.78424,-20.98899 -36.70859,-64.666719 -59.83641,-90.357033 l -4.78224,-5.312106 -2.58357,2.394019 c -8.60429,7.973046 -27.93928,33.146805 -39.53746,51.476979 -24.55881,38.813581 -38.16349,72.181361 -40.4093,99.110641 -1.16618,13.98351 2.84449,35.01641 10.1201,53.07216 2.90325,7.20493 4.65493,9.70758 13.6486,19.5 l 10.31788,11.23424 6.50412,-3.19653 C 292.57315,260.54538 299.55,257.98787 304.5,256.6201 Z M 236.70382,214.5 c -2.87286,-12.32237 -3.06739,-38.98461 -0.37576,-51.5 1.47523,-6.8594 7.16367,-25.63201 9.26654,-30.5808 0.93326,-2.19628 -34.33995,-17.36641 -58.89136,-25.32772 -15.59565,-5.05721 -40.07466,-11.13502 -45.9074,-11.398188 L 136.51181,95.5 l -0.80265,8 c -1.41622,14.11539 -0.1049,61.21426 2.18541,78.49382 1.1295,8.5216 2.32922,16.74859 2.66605,18.28218 l 0.61243,2.78837 12.68569,-0.66971 c 29.28058,-1.54579 57.18769,4.80884 78.59305,17.89616 3.27348,2.00142 6.04145,3.54225 6.15104,3.42406 0.1096,-0.11818 -0.74496,-4.26488 -1.89901,-9.21488 z m 189.47816,6.88512 c 20.41114,-12.88498 42.06462,-18.69872 70.07852,-18.81534 13.99021,-0.0583 16.83483,-0.31771 17.21025,-1.56978 0.24737,-0.825 1.23056,-8.025 2.18487,-16 2.22798,-18.6188 2.48148,-65.64367 0.45433,-84.27754 -0.76453,-7.027648 -1.67686,-12.954798 -2.02741,-13.171445 -0.35054,-0.216647 -7.37501,1.335388 -15.60994,3.448967 -24.18052,6.206178 -44.25125,13.697998 -71.3368,26.627948 -13.10954,6.25816 -15.24979,7.59405 -14.58458,9.10327 3.47949,7.89423 10.60051,31.70393 11.98296,40.06603 2.24247,13.56421 1.60277,38.04659 -1.29216,49.45277 -1.08183,4.2625 -1.79492,7.75 -1.58462,7.75 0.21029,0 2.24635,-1.17669 4.52458,-2.61488 z M 2976.4766,626.01206 c -12.8693,-1.89171 -23.7723,-6.5595 -29.741,-12.73261 -4.2072,-4.35127 -5.7356,-8.48767 -5.7356,-15.52285 0,-3.56142 -0.3769,-4.7566 -1.5,-4.7566 -2.7809,0 -1.8292,-7.86956 1.8903,-15.63087 l 3.3904,-7.07445 -5.1404,2.82708 c -11.8158,6.49846 -35.0454,7.81687 -49.948,2.83483 -12.9744,-4.33742 -22.3409,-13.1015 -24.7192,-23.12923 -0.6949,-2.93005 -1.7471,-5.64007 -2.3382,-6.02227 -1.784,-1.15359 -0.8428,-9.26595 1.8544,-15.98265 3.4203,-8.51753 11.2367,-18.67626 20.3582,-26.45918 11.9732,-10.2161 25.5093,-20.12283 34.0818,-24.94367 8.1836,-4.60213 13.0707,-9.23212 13.0707,-12.38302 0,-0.99548 -1.125,-5.57346 -2.5,-10.17327 -3.7012,-12.38215 -8.5,-31.96957 -8.5,-34.6952 0,-1.8592 -0.3841,-2.23387 -1.75,-1.70688 -5.2485,2.02503 -17.1623,4.62891 -27.6592,6.04522 -6.5501,0.88376 -13.0913,2.21812 -14.536,2.96523 -1.548,0.80047 -4.8169,5.05826 -7.9592,10.36682 -6.7505,11.40424 -19.8353,28.27017 -23.1737,29.87022 -3.2375,1.55169 -5.0976,3.66305 -8.1856,9.29129 -3.0086,5.48366 -20.5157,19.20292 -31.5168,24.69778 -11.8646,5.92619 -25.9101,5.79192 -39.042,-0.37323 -11.9652,-5.61745 -23.8085,-20.7388 -27.7022,-35.36989 -1.9125,-7.18653 -1.8648,-19.28013 0.1021,-25.9035 2.0134,-6.77965 16.7603,-36.71387 21.8995,-44.45301 8.5722,-12.90881 24.1819,-25.69262 35.5231,-29.09218 9.042,-2.71036 9.1733,-2.84821 13.0666,-13.71323 4.4761,-12.49131 17.5118,-28.64468 27.943,-34.62581 4.7338,-2.71433 6.4675,-3.14946 12.5807,-3.15755 8.6213,-0.0114 15.5507,3.09851 25.1214,11.27463 6.8531,5.85453 10.1545,9.9393 13.5098,16.71599 4.708,9.50834 3.3234,29.7248 -3.8211,55.79294 -1.886,6.88145 -3.2481,12.69272 -3.0269,12.91394 0.6576,0.65751 37.656,-7.20674 37.6157,-7.99542 -0.01,-0.1163 -0.6848,-2.43329 -1.5086,-5.14887 -2.2225,-7.32651 -2.9351,-20.06039 -1.5146,-27.06259 1.5686,-7.73207 4.4962,-12.64999 11.7087,-19.66921 6.2945,-6.12579 12.1563,-9.62573 17.4692,-10.43038 6.6677,-1.00985 14.8561,6.26476 14.8561,13.19825 0,5.87416 -2.0756,13.37145 -3.9848,14.39319 -3.936,2.10651 -6.4129,16.20161 -3.9743,22.61585 0.5726,1.50584 2.6244,10.42264 4.5597,19.8151 1.9353,9.39246 3.7651,17.92105 4.0662,18.95243 0.3011,1.03138 0.1307,1.61764 -0.3787,1.30281 -0.5203,-0.32153 -0.739,0.70348 -0.499,2.3387 0.235,1.60112 0.8929,2.81485 1.4619,2.69719 1.0786,-0.22303 3.6962,8.1769 3.7297,11.96885 0.018,2.00868 1.116,1.6168 13.7693,-4.91304 23.8721,-12.31943 36.4583,-19.81841 46.25,-27.55621 10.4565,-8.26312 15.0573,-10.66694 18.6774,-9.75836 4.4015,1.10471 5.5885,8.17236 2.4073,14.33467 -2.7265,5.28166 -7.6627,9.63513 -23.4963,20.7223 -20.0372,14.03065 -29.5646,20.02613 -40.5439,25.514 -5.3308,2.6645 -10.3059,5.58396 -11.056,6.48767 -1.1295,1.36101 -1.1581,3.30361 -0.1664,11.31465 2.6238,21.19653 1.0255,41.20321 -4.3482,54.42805 -1.2896,3.17385 -1.8114,5.42702 -1.1594,5.00706 0.652,-0.41996 4.3355,-2.82029 8.1855,-5.33407 13.7765,-8.99505 37.5818,-21.95355 74,-40.2821 42.5399,-21.4095 60.8439,-31.50576 64.75,-35.7153 3.3195,-3.57741 3.4549,-6.43929 0.723,-15.28424 -5.8242,-18.85656 -21.8434,-20.09539 -46.9209,-3.62861 -12.1993,8.01046 -14.2823,8.98075 -19.2799,8.98075 -13.2684,0 -16.0263,-17.27195 -4.026,-25.21337 2.1393,-1.4157 6.5824,-3.93332 9.8736,-5.59471 3.2912,-1.6614 8.2996,-4.85111 11.1298,-7.08824 2.8302,-2.23714 9.5569,-6.92163 14.9481,-10.40996 9.3978,-6.08075 16.3023,-11.88577 16.3023,-13.70641 0,-0.47236 3.3591,-3.60365 7.4646,-6.95842 6.1263,-5.00595 17.0696,-16.94337 19.8085,-21.60794 0.3485,-0.59348 -1.9329,-0.21126 -5.0697,0.84937 -14.4553,4.88762 -36.8743,10.001 -44.3438,10.11404 -7.1331,0.10796 -7.8977,-0.0908 -11.5145,-2.99223 -2.1308,-1.70932 -4.8207,-3.40831 -5.9777,-3.77553 -5.3567,-1.70015 -7.3841,-9.9059 -4.0162,-16.25511 3.2849,-6.19268 10.0875,-11.70662 13.8435,-11.22115 1.2679,0.16387 2.9803,-0.12829 3.8053,-0.64926 0.825,-0.52097 6,-0.9969 11.5,-1.05764 5.5,-0.0607 11.125,-0.62237 12.5,-1.24806 1.4559,-0.66253 12.9407,-1.50964 27.5,-2.0284 32.0623,-1.14241 41.8544,-0.10029 44.4392,4.72941 1.4861,2.77678 1.3203,7.72178 -0.3659,10.91327 -2.1954,4.15537 -15.0249,16.19787 -25.5733,24.00466 -5.225,3.86697 -17.0704,14.42872 -26.323,23.47057 l -16.8231,16.43972 3.8231,0.63169 c 2.1026,0.34743 4.498,0.62975 5.323,0.62738 1.3333,-0.004 1.3333,-0.12292 0,-1.07181 -2.6617,-1.89423 5.6631,-0.20544 13.218,2.68143 8.7046,3.3262 15.7709,10.13947 20.7665,20.02292 1.9165,3.79158 3.5666,7.04386 3.6668,7.22729 0.2821,0.51597 36.0782,-26.5868 36.9256,-27.95801 0.4121,-0.66669 5.793,-16.09891 11.9578,-34.29383 16.3567,-48.27644 26.9706,-78.50233 30.849,-87.85073 9.401,-22.6601 32.3436,-66.02536 38.2498,-72.29828 1.7235,-1.83045 5.9581,-8.41412 9.4102,-14.63038 10.6428,-19.16438 27.1361,-39.16255 35.3913,-42.91206 5.6141,-2.54991 14.7196,-2.47788 20.1678,0.15953 5.2108,2.52253 11.471,9.17125 14.6977,15.61004 3.7638,7.51048 5.0463,14.55697 4.417,24.2696 -1.1134,17.18536 -6.6607,32.9719 -23.2494,66.16257 -9.6956,19.39903 -16.6111,30.75423 -24.7767,40.6835 -2.3862,2.9015 -7.1874,10.1015 -10.6695,16 -10.4599,17.71876 -29.961,46.6991 -43.1296,64.09447 -21.0018,27.74291 -18.7427,23.0349 -28.3738,59.13007 -2.5681,9.625 -5.803,21.72502 -7.1886,26.88894 -2.0762,7.73814 -2.3076,9.78423 -1.316,11.63712 0.9638,1.80076 0.8399,4.3105 -0.6222,12.61105 -2.5473,14.46051 -2.5772,36.58621 -0.058,43.11456 4.5015,11.66678 14.7459,10.35934 28.4467,-3.63046 8.4824,-8.66136 22.2341,-25.74602 32.4489,-40.31361 13.3357,-19.01832 39.7766,-61.67043 40.7955,-65.8076 6.6225,-26.89165 18.4288,-50.98165 34.3035,-69.99461 17.3314,-20.7574 36.0856,-27.58742 56.34,-20.5182 8.4025,2.93266 13.8248,7.27652 16.8813,13.52381 2.444,4.99529 2.658,6.32013 2.2566,13.96823 -0.3894,7.41859 -0.947,9.46041 -4.5701,16.73513 -5.0304,10.10043 -12.2577,18.82391 -24.0109,28.98166 -13.7148,11.85312 -21.6339,16.85568 -33.6415,21.25157 -11.7036,4.28462 -12.5833,5.15222 -12.5833,12.41083 0,2.05052 -1.5737,11.35872 -3.4972,20.6849 -3.9286,19.04871 -4.4047,28.14497 -1.7512,33.45668 1.4824,2.9676 2.3346,3.54815 5.6022,3.81655 4.9955,0.41034 12.0706,-3.03453 22.3255,-10.87024 9.0904,-6.94595 32.3207,-29.75679 32.3207,-31.73714 0,-1.89251 4.9611,-8.88946 13.8765,-19.57075 4.1929,-5.02348 11.9869,-14.93654 17.3199,-22.02902 10.6778,-14.20063 10.7847,-14.57579 6.558,-23.0181 -4.4267,-8.84168 -0.6116,-24.34507 8.2337,-33.45959 6.3177,-6.50996 11.0899,-8.45974 18.9295,-7.73405 3.6203,0.33513 7.3598,0.63647 8.31,0.66966 2.5535,0.0892 5.7756,4.74977 5.7504,8.31754 -0.028,3.96897 -3.4628,11.61514 -5.2178,11.61514 -1.5261,0 -7.3241,9.18585 -8.2744,13.10927 -0.9536,3.93717 2.7769,7.48305 9.7166,9.23579 3.1364,0.79213 5.8364,1.11116 6,0.70896 0.4559,-1.12023 17.6827,0.79044 23.0786,2.55969 6.0983,1.99955 10.2992,5.53729 11.0535,9.30855 0.8756,4.37808 -1.5616,11.39078 -11.3124,32.5506 -4.8224,10.46493 -11.0319,25.10214 -13.7988,32.52714 -2.7668,7.425 -6.874,18.06777 -9.127,23.65059 -6.854,16.98407 -5.1948,20.01834 6.6976,12.2479 8.296,-5.42064 17.1211,-14.41608 24.6093,-25.08442 3.3533,-4.77726 19.086,-25.84668 34.9616,-46.82094 22.1182,-29.22157 29.6783,-38.52291 32.3449,-39.79454 3.316,-1.58129 3.5463,-1.56894 4.8852,0.26207 4.553,6.22655 -3.2271,22.7458 -26.1687,55.56386 -31.868,45.58707 -41.2685,56.59911 -60.7369,71.14878 -6.4958,4.85469 -12.2202,8.8267 -12.7207,8.8267 -0.5006,0 -2.9873,1.4625 -5.5261,3.25 -3.8754,2.72863 -5.4507,3.23027 -9.82,3.12702 -3.0572,-0.0722 -6.8657,-0.97062 -9.2316,-2.17758 -14.4134,-7.3532 -19.8936,-27.79227 -13.8915,-51.81111 2.5452,-10.18553 4.8026,-16.21718 6.5076,-17.38833 0.4004,-0.275 1.4431,-2.97728 2.3172,-6.00507 1.4216,-4.92416 5.8524,-15.13369 17.0319,-39.24493 l 3.5934,-7.75 h -8.7313 c -4.8023,0 -10.1809,-0.4157 -11.9524,-0.92378 l -3.2211,-0.92378 -14.6912,19.17378 c -8.0802,10.54558 -19.0027,24.34959 -24.2724,30.67559 -5.2696,6.32599 -12.645,15.84317 -16.3897,21.14927 -11.1409,15.78629 -26.3726,29.9994 -37.9008,35.36633 -9.8499,4.58565 -22.9266,2.64538 -34.6738,-5.14481 -12.1838,-8.07973 -19.2516,-18.63645 -21.3004,-31.81504 l -1.1581,-7.44876 -3.5048,5.6956 c -12.6125,20.49583 -36.8458,51.80801 -51.6187,66.69699 -16.1246,16.25142 -27.6594,22.64011 -41.0919,22.75927 -21.0644,0.18687 -34.6289,-17.07041 -37.4775,-47.68024 -2.0377,-21.89702 1.385,-48.55515 10.9621,-85.37952 l 1.8983,-7.29911 -4.1629,3.35731 c -2.2896,1.84651 -7.5379,6.00379 -11.6629,9.2384 -14.2379,11.16458 -15,12.1113 -15,18.63309 0,16.44715 -5.2549,34.98718 -15.4622,54.55254 -19.9085,38.16084 -47.4524,68.24833 -78.0455,85.25271 -4.9542,2.75368 -11.7042,5.94991 -15,7.10273 -14.9702,5.2364 -20.8032,6.96836 -26.6801,7.92202 -7.0807,1.149 -28.6613,1.17957 -36.3356,0.0515 z m 23.3082,-16.52168 c 7.1501,-2.14922 29.281,-17.12777 41.7152,-28.23357 21.1779,-18.91541 38.6786,-39.17445 49.0156,-56.74108 4.8627,-8.26366 13.9498,-27.44618 13.2716,-28.01592 -0.5727,-0.4812 -37.4133,21.22702 -42.1138,24.81547 -2.6546,2.02659 -5.3589,3.68472 -6.0094,3.68472 -0.6506,0 -1.7259,0.86943 -2.3895,1.93208 -0.6636,1.06264 -4.2594,3.60268 -7.9906,5.64453 -17.0043,9.30553 -37.4774,21.13413 -44.7839,25.87453 -19.8343,12.86841 -34.145,29.45468 -34.4239,39.89773 -0.1109,4.1504 2.8063,9.59659 6.3439,11.84383 2.6859,1.70627 4.2954,1.88812 12.58,1.42139 5.225,-0.29436 11.8781,-1.25003 14.7848,-2.12371 z m 79.0859,-19.73449 c 8.2899,-7.03618 20.2951,-21.43657 27.4763,-32.95829 3.9928,-6.40615 11.653,-22.52401 11.653,-24.51904 0,-0.3097 -2.8125,4.11343 -6.25,9.82918 -12.7604,21.21747 -33.602,46.59684 -48.25,58.75528 -3.2723,2.71611 -2.9084,2.57684 2,-0.76555 3.3,-2.24713 9.3168,-6.90085 13.3707,-10.34158 z m -140.7602,-26.9343 c 3.0858,-1.62334 7.3608,-4.78804 9.5,-7.03267 l 3.8895,-4.08113 -5.6985,4.22733 c -3.1341,2.32503 -8.5341,5.79058 -12,7.70121 -7.5071,4.13852 -3.7596,3.42993 4.309,-0.81474 z m -30.8199,-12.36155 c 3.3298,-1.35302 6.5674,-2.46004 7.1947,-2.46004 3.4459,0 14.1694,-16.99717 17.5099,-27.75399 1.0682,-3.4397 2.2483,-10.9888 2.6224,-16.77578 0.6324,-9.78079 0.5565,-10.47426 -1.0777,-9.84715 -0.967,0.37104 -2.9465,1.78012 -4.399,3.13128 -1.4525,1.35116 -8.0237,6.12168 -14.6027,10.60115 -17.0083,11.58053 -24.5857,18.98948 -29.5354,28.87881 -5.3352,10.65932 -5.2585,13.82611 0.3969,16.39804 4.2555,1.93529 14.2141,0.94706 21.8909,-2.17232 z m -116.071,-63.75065 c 8.8615,-3.21656 16.9674,-8.83307 26.3648,-18.26789 7.7925,-7.82356 19.9199,-24.58295 24.8997,-34.41005 l 2.3994,-4.7351 -8.6612,-2.13821 c -16.0937,-3.97305 -26.7053,-11.2439 -32.1632,-22.03755 l -2.7392,-5.41701 -5.1599,9.01688 c -2.838,4.95929 -5.16,9.34399 -5.16,9.74377 0,0.39979 -2.7405,6.84271 -6.0901,14.3176 -9.6633,21.56472 -13.2448,33.1274 -13.3345,43.05007 -0.072,7.93095 0.06,8.44826 2.7304,10.75 3.6118,3.11281 8.586,3.1503 16.9138,0.12749 z M 3308.4396,476.5 c 2.9943,-10.5536 2.9607,-10.29435 0.9847,-7.59063 -1.8971,2.59561 -4.4329,12.01945 -4.3297,16.09063 l 0.063,2.5 0.7896,-2.5 c 0.4343,-1.375 1.5558,-5.2 2.4921,-8.5 z m -162.7503,-6.25 c -0.2515,-0.9625 -0.4573,-0.175 -0.4573,1.75 0,1.925 0.2058,2.7125 0.4573,1.75 0.2516,-0.9625 0.2516,-2.5375 0,-3.5 z m -182.0062,-24.4375 c -0.3192,-0.79773 -0.5562,-0.56078 -0.6042,0.60417 -0.043,1.05416 0.193,1.64479 0.5253,1.3125 0.3323,-0.33229 0.3678,-1.1948 0.079,-1.91667 z m -1,-5 c -0.3192,-0.79773 -0.5562,-0.56078 -0.6042,0.60417 -0.043,1.05416 0.193,1.64479 0.5253,1.3125 0.3323,-0.33229 0.3678,-1.1948 0.079,-1.91667 z m 400.9515,-23.42071 c 9.3347,-6.58593 16.7613,-13.77459 24.3186,-23.53971 l 6.8547,-8.85718 0.7046,-10.33723 c 0.585,-8.58295 0.4272,-10.87355 -0.9296,-13.49745 -2.0692,-4.00134 -5.2968,-4.15292 -8.735,-0.41022 -4.7836,5.20723 -11.6957,14.9043 -15.1971,21.32018 -3.3578,6.1528 -16.5686,35.94462 -18.1536,40.93866 l -0.7595,2.39307 2.8811,-1.841 c 1.5847,-1.01255 5.6418,-3.78865 9.0158,-6.16912 z m -515.8592,0.003 c 2.5787,-0.51575 3.5,-1.63476 6.2402,-7.57974 4.9635,-10.76833 13.995,-49.36658 13.9788,-59.7414 -0.012,-7.89545 -3.5826,-15.20981 -7.9863,-16.3614 -2.8509,-0.74555 -9.0913,2.5701 -13.9039,7.38748 -6.4748,6.48121 -12.1042,14.27636 -12.1042,16.76099 0,1.19851 -1.9662,6.10762 -4.3694,10.90913 -6.2514,12.49018 -7.9746,18.9923 -8.059,30.40928 -0.069,9.36127 0.024,9.7789 2.8291,12.71201 2.7391,2.86383 3.8527,3.2682 15.0993,5.48289 3.3081,0.65143 5.0996,0.65593 8.2754,0.0208 z M 3258.7023,338.5 c 18.8459,-30.32586 19.5546,-31.5 19.0123,-31.5 -0.6302,0 -9.0824,12.77849 -11.2445,17 -0.9859,1.925 -1.9701,2.97451 -2.1872,2.33225 -0.5597,-1.65579 4.4893,-11.27788 11.5523,-22.01572 7.0032,-10.64699 26.4816,-46.5163 36.2839,-66.81653 9.9098,-20.52283 15.1767,-41.3417 11.9733,-47.3274 -1.6063,-3.00134 -3.0698,-2.73978 -7.9255,1.41649 -15.3012,13.0973 -36.441,59.36475 -62.2519,136.24699 -6.5532,19.52001 -11.915,35.73235 -11.915,36.02743 0,1.27591 2.617,-2.69817 16.7023,-25.36351 z M 3280,304 c 0.5887,-1.1 0.8454,-2 0.5704,-2 -0.275,0 -0.9817,0.9 -1.5704,2 -0.5887,1.1 -0.8454,2 -0.5704,2 0.275,0 0.9817,-0.9 1.5704,-2 z m 4,-7 c 0.5887,-1.1 0.8454,-2 0.5704,-2 -0.275,0 -0.9817,0.9 -1.5704,2 -0.5887,1.1 -0.8454,2 -0.5704,2 0.275,0 0.9817,-0.9 1.5704,-2 z m 4.5,-8 c 0.8532,-1.65 1.3264,-3 1.0514,-3 -0.275,0 -1.1982,1.35 -2.0514,3 -0.8532,1.65 -1.3264,3 -1.0514,3 0.275,0 1.1982,-1.35 2.0514,-3 z m 6,-11 c 0.8532,-1.65 1.3264,-3 1.0514,-3 -0.275,0 -1.1982,1.35 -2.0514,3 -0.8532,1.65 -1.3264,3 -1.0514,3 0.275,0 1.1982,-1.35 2.0514,-3 z m -29.4803,-41.25 c 2.3363,-3.9875 5.1256,-8.825 6.1986,-10.75 l 1.9508,-3.5 -2.6437,3 c -2.4261,2.75302 -11.0661,18.5 -10.1505,18.5 0.2184,0 2.3086,-3.2625 4.6448,-7.25 z M 1803.9453,603.54951 c -7.7577,-2.858 -11.8681,-5.77003 -21.9453,-15.54742 -5.775,-5.60316 -11.5186,-10.87659 -12.7636,-11.71873 -1.2449,-0.84214 -6.0923,-6.53791 -10.7719,-12.65726 -4.6796,-6.11936 -10.4651,-13.5268 -12.8566,-16.46099 -6.3124,-7.74448 -13.0662,-20.01576 -13.2578,-24.08833 -0.09,-1.90674 -0.8641,-3.97943 -1.7209,-4.60597 -0.8568,-0.62653 -8.2933,-13.92627 -16.5256,-29.55498 -12.4536,-23.64294 -15.1659,-29.55876 -16.1478,-35.22035 -0.649,-3.74248 -1.3263,-6.65831 -1.505,-6.47961 -0.1787,0.1787 -2.8267,6.47328 -5.8844,13.98797 -9.9189,24.37667 -17.4391,49.38419 -20.9889,69.79616 -0.5359,3.08128 -1.3336,3.8589 -6.6675,6.5 -4.9118,2.43211 -7.3224,2.99887 -12.7344,2.99402 -11.0853,-0.01 -17.3941,-5.39103 -18.715,-15.96301 -0.8858,-7.08997 -0.01,-13.36597 4.0678,-29.03101 1.8596,-7.15 5.0068,-20.58098 6.9937,-29.84663 4.6303,-21.59274 8.3317,-33.97162 13.5089,-45.17984 4.0179,-8.69838 8.0429,-20.89766 9.5203,-28.85532 0.3964,-2.13499 2.6452,-8.6695 4.9973,-14.52115 2.3521,-5.85165 5.4353,-14.99417 6.8515,-20.31672 2.544,-9.56124 8.8183,-26.36787 12.6415,-33.86192 1.0834,-2.12364 3.3277,-5.2502 4.9872,-6.9479 1.6596,-1.69771 2.7762,-3.47696 2.4815,-3.95389 -0.5599,-0.9059 4.3488,-12.82732 14.0064,-34.01663 3.1335,-6.875 8.5001,-19.02918 11.9258,-27.00929 6.8553,-15.96941 10.4583,-22.33209 13.5975,-24.01212 1.1381,-0.60907 3.5862,-4.43627 5.4403,-8.50489 4.5436,-9.97022 8.7989,-15.93251 12.4507,-17.44513 6.0989,-2.52622 11.463,0.96372 16.1666,10.51812 2.8822,5.85451 3.1249,7.05004 2.5495,12.5551 -0.6928,6.62916 -6.8363,19.89821 -9.2127,19.89821 -2.4168,0 -24.8484,41.66756 -36.8766,68.5 -6.9762,15.56237 -18.8138,44.57732 -18.3685,45.02261 0.1742,0.17423 4.7721,-8.4279 10.2175,-19.11583 5.4454,-10.68794 10.0977,-19.23562 10.3385,-18.99486 0.2407,0.24077 -1.821,6.43408 -4.5816,13.76292 -6.3158,16.76683 -10.401,28.92121 -9.8918,29.43038 0.216,0.21599 3.0028,-4.44433 6.1928,-10.35626 12.6523,-23.44755 22.7868,-38.21969 42.0877,-61.3475 4.7742,-5.7208 10.2578,-12.87646 12.1858,-15.90146 1.928,-3.025 4.0131,-5.95 4.6336,-6.5 0.6205,-0.55 1.8803,-2.62849 2.7995,-4.61887 1.902,-4.11854 20.7342,-24.58816 39.0615,-42.45781 9.0083,-8.78343 14.1176,-12.94202 18.7363,-15.25 18.0735,-9.03143 37.0862,1.23501 45.0262,24.31314 2.1162,6.15077 2.4425,13.15328 1.1532,24.74682 -0.4613,4.14814 -0.377,6.85721 0.2196,7.05608 2.8689,0.9563 -7.3604,30.75493 -17.5308,51.06852 -8.646,17.26902 -21.7221,34.91433 -41.1667,55.55164 -17.9244,19.02393 -27.541,26.86088 -35.1706,28.66179 -2.4652,0.5819 -0.7833,-1.41147 9.4342,-11.18159 21.7373,-20.78552 36.4805,-39.42309 49.0131,-61.9596 7.4986,-13.4841 7.967,-16.06699 0.6764,-3.72916 -8.6288,14.60239 -17.6462,26.1896 -38.1237,48.98825 -4.4,4.89876 -11.7932,13.28772 -16.4294,18.64215 -10.3817,11.99002 -18.093,18.36972 -33.4922,27.70879 -19.0176,11.53353 -35.208,17.93131 -45.4884,17.97516 -1.9745,0.008 -3.0855,0.34592 -2.469,0.75 0.6166,0.40408 2.5758,3.62697 4.3539,7.16197 3.4116,6.78255 20.2461,32.41724 32.8831,50.07272 4.1336,5.775 15.194,19.31145 24.5788,30.08099 9.3847,10.76955 19.9772,23.03205 23.5387,27.25 3.5615,4.21796 7.0525,7.66901 7.7579,7.66901 0.7053,0 5.409,2.34628 10.4526,5.21395 14.6243,8.3149 22.9332,7.93346 37.814,-1.73594 3.575,-2.32299 8.2788,-6.08086 10.4529,-8.35082 2.1742,-2.26995 4.5208,-4.12719 5.2149,-4.12719 2.1861,0 3.5768,4.10265 3.0939,9.12773 -0.5871,6.11077 -3.392,10.20943 -16.1,23.52633 -16.4867,17.27676 -29.6572,24.35007 -45.1617,24.25439 -4.4,-0.0272 -9.5996,-0.63868 -11.5547,-1.35894 z m -83.4957,-193.59298 c 4.1804,-1.67391 8.0072,-2.79224 8.5041,-2.48517 1.6237,1.00351 31.0463,-17.13958 31.0463,-19.14433 0,-0.31456 -0.6859,-0.003 -1.5242,0.69303 -0.8383,0.69572 -1.7807,1.00834 -2.0944,0.69471 -0.3136,-0.31363 2.2634,-2.74026 5.7266,-5.3925 19.6486,-15.04743 34.3188,-30.58294 50.8663,-53.86641 21.0391,-29.6033 33.0257,-58.30683 33.0257,-79.08408 0,-7.10804 -0.3096,-8.68141 -2.0512,-10.42293 -5.3291,-5.32915 -16.3415,3.82178 -42.8511,35.60774 -35.8569,42.99372 -53.4477,67.08488 -63.8491,87.44341 -3.7935,7.425 -11.0613,21.4875 -16.1506,31.25 -5.0894,9.7625 -9.0274,17.75 -8.7513,17.75 0.2762,0 3.9225,-1.36956 8.1029,-3.04347 z M 1708.9694,359.5 c 0,-0.55 -0.4362,-0.325 -0.9694,0.5 -0.5332,0.825 -0.9694,1.95 -0.9694,2.5 0,0.55 0.4362,0.325 0.9694,-0.5 0.5332,-0.825 0.9694,-1.95 0.9694,-2.5 z m -649.2468,220.44582 c -5.8795,-0.96962 -11.9131,-4.42016 -17.3582,-9.92693 -5.3422,-5.40273 -8.6899,-11.64477 -11.5571,-21.54901 -2.0967,-7.24239 -2.3046,-9.93239 -2.2773,-29.46988 0.022,-16.11918 0.4692,-23.87757 1.7851,-31 1.9719,-10.67338 6.5207,-31.37657 7.4412,-33.86783 0.3317,-0.8977 -2.2634,1.96783 -5.7668,6.36783 -3.5035,4.4 -8.9131,10.96631 -12.0215,14.59181 -3.1083,3.62549 -8.9627,11.27549 -13.0098,17 -12.9822,18.36321 -32.7201,36.14288 -43.30243,39.00636 -16.36479,4.42817 -39.45448,-7.79514 -48.21726,-25.52542 -5.10176,-10.3227 -5.47979,-17.90724 -1.97237,-39.57275 5.58827,-34.51903 10.45968,-51.26041 20.69374,-71.1173 6.93267,-13.45131 19.33755,-30.49222 27.47887,-37.74846 15.70988,-14.00199 33.91517,-17.38309 51.38475,-9.54321 11.4914,5.15705 16.8346,14.31719 15.6639,26.85376 -1.2302,13.1736 -8.4553,25.39725 -23.4409,39.65801 -15.77892,15.01567 -26.80752,22.30858 -40.7465,26.94452 -3.85,1.28046 -7.64726,2.90698 -8.43837,3.61448 -0.81233,0.72648 -1.76085,4.30453 -2.17931,8.22089 -0.40753,3.814 -2.1628,13.38816 -3.9006,21.27592 -3.89487,17.67855 -4.34466,29.53274 -1.27712,33.65904 4.23809,5.70088 12.52884,3.39113 27.22211,-7.58391 10.32479,-7.71203 30.54079,-27.5734 32.60649,-32.03446 2.02,-4.36242 7.3209,-11.65513 16.4997,-22.69928 13.3804,-16.09959 18.6451,-23.79022 19.3327,-28.24124 0.8279,-5.35918 12.7042,-41.42559 24.0262,-72.96417 4.7792,-13.31298 9.3892,-26.58798 10.2443,-29.5 5.9186,-20.15573 37.5881,-84.08778 44.8026,-90.44447 1.342,-1.18243 5.4466,-7.48243 9.1214,-14 11.7427,-20.82701 26.9111,-39.52825 35.6546,-43.95893 6.1717,-3.1274 15.1276,-3.27755 20.8664,-0.34981 5.7636,2.94038 11.4224,9.20458 15.1441,16.7644 2.8775,5.84516 3.2806,7.71678 3.6165,16.79097 0.6912,18.67247 -3.4766,32.52666 -19.9767,66.40325 -12.3587,25.37396 -17.5928,34.37826 -25.4676,43.81234 -3.3859,4.05638 -9.2479,12.6155 -13.0268,19.02028 -13.8091,23.4051 -36.1742,56.00065 -53.2906,77.66738 -3.9653,5.01941 -8.0118,11.40239 -9.1489,14.43174 -1.9802,5.27515 -6.9071,22.87856 -14.4329,51.56826 -2.0199,7.7 -3.8886,14.7875 -4.1527,15.75 -0.2642,0.9625 0,1.75 0.5871,1.75 1.4664,0 1.3058,5.96248 -0.4174,15.5 -1.6816,9.30692 -1.9737,33.30907 -0.4712,38.71895 2.9375,10.57674 10.3846,12.69254 20.592,5.85035 7.3734,-4.94244 10.4871,-8.20981 24.3669,-25.5693 11.1463,-13.94073 29.2205,-40.45237 47.0404,-69 8.2435,-13.20601 9.7046,-16.25579 12.2166,-25.5 7.5808,-27.89682 21.1506,-52.43556 38.7234,-70.02468 9.7455,-9.75466 17.4946,-14.14388 28.2667,-16.01079 15.527,-2.69098 33.1659,4.27949 38.9987,15.41126 3.0533,5.82736 2.9743,17.8606 -0.1703,25.92788 -5.2053,13.35379 -18.3779,28.4596 -37.268,42.73754 -8.6066,6.50517 -16.1642,10.42638 -26.0748,13.52868 -3.1704,0.99244 -6.4316,2.54169 -7.2471,3.4428 -0.8155,0.90111 -1.7485,4.52939 -2.0734,8.06284 -0.3249,3.53346 -1.9642,12.72447 -3.6429,20.42447 -4.4406,20.36882 -4.2163,33.50039 0.6275,36.73469 3.9432,2.63293 14.133,-1.45762 26.0803,-10.4696 10.7717,-8.12513 30.0117,-27.54878 32.4554,-32.76509 1.1594,-2.475 5.8989,-9.20218 10.5321,-14.9493 8.9446,-11.095 8.8804,-10.93579 10.0958,-25.0507 0.3552,-4.125 1.9104,-11.325 3.4561,-16 5.9493,-17.9941 15.8267,-44.90746 19.3249,-52.65512 2.011,-4.45389 3.9446,-9.61603 4.2969,-11.47143 0.3523,-1.8554 1.0558,-4.18503 1.5635,-5.17696 3.8759,-7.57359 21.4611,-7.64987 29.4369,-0.12769 2.8545,2.69212 3.3584,3.84966 3.3584,7.71478 0,4.2644 -0.4647,5.05359 -7.4661,12.67954 -6.5771,7.16373 -9.5008,12.19168 -9.5283,16.38615 0,0.4671 -1.676,3.55546 -3.7175,6.86302 -2.0415,3.30756 -4.7103,8.9805 -5.9306,12.60653 l -2.2186,6.59277 2.4305,2.43057 c 3.3912,3.3912 3.0472,6.36131 -1.5006,12.9567 -4.5498,6.59818 -6.4976,14.38835 -3.3942,13.57484 1.8552,-0.48631 11.3254,-14.02185 11.3254,-16.18711 0,-2.12757 37.7248,-50.87855 49.5422,-64.02232 13.8125,-15.36276 30.4373,-12.68916 35.8615,5.76723 2.0109,6.84225 2.0057,9.79265 -0.028,15.78355 -2.0396,6.00833 -5.9055,11.73224 -14.3757,21.28495 -8.2827,9.34118 -11.5971,14.2185 -16.9891,25 l -4.2509,8.5 4.2432,-4.79344 c 2.3338,-2.63639 4.4611,-4.57559 4.7274,-4.30933 0.2662,0.26626 -0.8674,2.87331 -2.5192,5.79344 -3.6057,6.3742 -11.2114,32.63021 -11.2114,38.70321 0,4.17848 0.089,4.30068 2.6535,3.65695 4.7559,-1.19365 18.875,-12.20796 39.8473,-31.08492 7.8212,-7.03975 8.065,-7.40087 10.8587,-16.08368 6.4213,-19.9573 15.7388,-37.26635 28.6155,-53.15909 9.0481,-11.16742 14.9931,-16.29691 23.6232,-20.38258 12.2924,-5.81945 25.9825,-5.93595 37.8492,-0.32211 11.4513,5.41732 16.1047,13.38374 15.3575,26.29136 -0.9292,16.05051 -11.5391,31.59637 -34.1843,50.08762 -10.6723,8.71459 -17.1052,12.48474 -28.5077,16.70759 -11.313,4.18969 -12.0991,5.01341 -12.1294,12.71008 -0.01,2.30169 -1.3975,10.2599 -3.0855,17.6849 -3.9302,17.28808 -4.7771,31.0591 -2.2138,36 3.2694,6.30186 9.5998,5.39793 22.4657,-3.20792 11.3331,-7.58057 35.2169,-30.46689 38.0216,-36.43357 1.0844,-2.30693 8.0689,-11.76884 15.5211,-21.02647 7.4523,-9.25762 16.6107,-21.10704 20.352,-26.33204 8.2751,-11.55653 12.0019,-15.25 15.3875,-15.25 3.1805,0 4.9967,1.45676 6.5792,5.27725 1.0104,2.43937 0.9648,3.35833 -0.259,5.21685 -3.6563,5.55253 -36.586,48.11486 -43.2714,55.92921 -4.0811,4.77033 -11.089,13.77033 -15.573,20 -13.1884,18.3227 -29.1246,33.39485 -41.0116,38.78814 -9.7312,4.41513 -23.7579,1.5944 -36.1914,-7.27801 -15.5779,-11.11615 -21.4812,-25.64307 -18.5664,-45.68879 l 1.3821,-9.50534 -10.3457,10.70846 c -16.7531,17.3405 -23.5872,19.39028 -37.4984,11.24702 -4.2799,-2.50536 -8.0311,-5.20536 -8.3361,-6 -0.3049,-0.79463 -1.1028,-1.44479 -1.7731,-1.44479 -3.4803,0 -9.2546,-10.36358 -10.127,-18.17599 -0.607,-5.43571 1.7481,-31.24033 3.6091,-39.54438 1.7869,-7.97371 9.0533,-24.14039 12.5817,-27.99244 1.8529,-2.02291 3.3689,-4.04009 3.3689,-4.48261 0,-1.57806 0.2097,-2.3278 1.1338,-4.05458 2.2431,-4.19131 -0.5375,-0.97284 -8.2076,9.5 -4.5316,6.1875 -11.2482,14.4 -14.9257,18.25 -3.6775,3.85 -7.2773,8.125 -7.9994,9.5 -0.7222,1.375 -5.6844,9.25 -11.0271,17.5 -5.3427,8.25 -10.7278,17.025 -11.9669,19.5 -2.829,5.6507 -2.6826,5.51423 -4.3939,4.09394 -0.9782,-0.81182 -1.6415,-0.8572 -2.0832,-0.1425 -0.9346,1.51223 -8.1633,1.28956 -11.332,-0.34906 -1.4865,-0.76869 -3.5589,-2.34369 -4.6053,-3.5 -1.0465,-1.15631 -2.2152,-2.10238 -2.5972,-2.10238 -1.1893,0 -19.4976,22.42395 -27.1225,33.2196 -12.3885,17.54013 -30.2217,33.63546 -41.5402,37.49206 -11.4357,3.89656 -27.3359,-1.17028 -39.5618,-12.60704 -8.6192,-8.0628 -12.8885,-16.51446 -13.5613,-26.84621 l -0.4716,-7.24159 -4.4526,7.24159 c -7.2573,11.80314 -25.0503,36.1693 -35.9171,49.18591 -25.8525,30.96688 -44.2095,42.5419 -62.6458,39.5015 z M 922.56962,461.02226 c 1.33671,-6.31276 2.39568,-13.28776 2.35327,-15.5 -0.072,-3.75485 -0.27303,-3.45716 -3.02403,4.47774 -4.53696,13.08625 -4.66945,13.74064 -5.26437,26 l -0.55806,11.5 2.03141,-7.5 c 1.11727,-4.125 3.12507,-12.66498 4.46178,-18.97774 z M 1420.4366,463.25 c 1.2134,-5.6375 2.115,-10.25 2.0035,-10.25 -0.1115,0 -1.4936,1.6875 -3.0714,3.75 -2.4387,3.18787 -2.9717,5.02416 -3.5561,12.25 -0.3781,4.675 -0.9451,10.75 -1.26,13.5 -0.5585,4.87728 -0.5204,4.82819 1.5526,-2 1.1688,-3.85 3.1179,-11.6125 4.3314,-17.25 z m -249.3238,12.39424 c 2.0816,-7.10349 1.984,-9.53564 -0.22,-5.47989 -1.5786,2.90484 -3.8567,14.53611 -3.0139,15.38758 0.3416,0.34512 0.7569,-0.20038 0.923,-1.21222 0.166,-1.01184 1.2059,-4.9248 2.3109,-8.69547 z m 53.2642,-56.91966 c 13.5803,-9.17735 32.623,-30.55109 32.623,-36.61632 0,-1.6554 0.4941,-5.31378 1.098,-8.12974 1.9598,-9.1379 -1.1741,-16.9292 -6.2925,-15.64455 -3.1505,0.79073 -13.2669,13.65218 -18.7364,23.8205 -3.6987,6.87614 -11.3583,23.97598 -16.6138,37.08973 l -2.3021,5.7442 2.1734,-1.14611 c 1.1954,-0.63035 4.8181,-2.93332 8.0504,-5.11771 z m 248.123,-1.25134 c 9.6838,-6.85398 15.3968,-12.35541 23.5965,-22.72244 l 7.7109,-9.7492 0.7048,-10.34058 c 0.5853,-8.58629 0.4276,-10.87673 -0.9293,-13.5008 -2.2604,-4.37105 -5.4298,-4.17909 -9.7378,0.58978 -4.9292,5.45637 -12.2098,15.96068 -15.2263,21.96815 -3.0932,6.16014 -16.0255,35.83729 -17.1216,39.29069 l -0.7595,2.39307 2.8811,-1.841 c 1.5847,-1.01255 5.5812,-3.75201 8.8812,-6.08767 z m -501.17119,2.09369 c 8.78186,-5.83402 18.21982,-14.65394 26.11269,-24.40273 4.1572,-5.13469 7.5764,-9.63469 7.5982,-10 0.022,-0.36531 0.3251,-3.1392 0.6739,-6.1642 1.2582,-10.91183 0.9187,-16.64612 -1.1186,-18.89613 -1.0477,-1.15713 -2.6935,-2.10387 -3.6573,-2.10387 -2.21277,0 -9.48196,8.04128 -15.63214,17.29249 -3.95456,5.9485 -19.29988,38.8128 -21.79799,46.68367 -0.92176,2.9042 0.46693,2.47643 7.82124,-2.40923 z M 1121.2339,338.25 c 19.2526,-30.95223 20.0353,-32.25 19.4505,-32.25 -0.7615,0 -12.6844,18.72488 -12.6844,19.92077 0,0.59358 -0.4389,1.07923 -0.9752,1.07923 -2.0403,0 3.3089,-10.75396 11.6893,-23.5 6.659,-10.1279 28.7924,-50.93898 36.8092,-67.87113 7.17,-15.14375 10.568,-26.25817 11.2055,-36.65204 0.4371,-7.12737 0.2525,-8.74743 -1.1272,-9.89251 -1.4247,-1.18239 -2.1231,-1.03271 -5.1154,1.09637 -15.4152,10.96806 -37.7246,58.66367 -63.5747,135.91725 C 1105.1205,361.33577 1104.6022,363 1105.4196,363 c 0.2307,0 7.3472,-11.1375 15.8143,-24.75 z M 1143,303 c 0.5887,-1.1 0.8454,-2 0.5704,-2 -0.275,0 -0.9817,0.9 -1.5704,2 -0.5887,1.1 -0.8454,2 -0.5704,2 0.275,0 0.9817,-0.9 1.5704,-2 z m 4,-7 c 0.5887,-1.1 0.8454,-2 0.5704,-2 -0.275,0 -0.9817,0.9 -1.5704,2 -0.5887,1.1 -0.8454,2 -0.5704,2 0.275,0 0.9817,-0.9 1.5704,-2 z m 5,-9 c 1.1224,-2.2 1.8156,-4 1.5406,-4 -0.275,0 -1.4182,1.8 -2.5406,4 -1.1224,2.2 -1.8156,4 -1.5406,4 0.275,0 1.4182,-1.8 2.5406,-4 z m 5.5,-10 c 0.8532,-1.65 1.3264,-3 1.0514,-3 -0.275,0 -1.1982,1.35 -2.0514,3 -0.8532,1.65 -1.3264,3 -1.0514,3 0.275,0 1.1982,-1.35 2.0514,-3 z m -24.172,-50.25 c 1.516,-2.6125 2.5469,-4.75 2.2909,-4.75 -0.7754,0 -9.2059,13.14854 -12.0006,18.71676 -5.77,11.49621 -1.5112,5.37018 9.7097,-13.96676 z M 807.5,570.11357 c -7.19244,-3.31304 -11.60431,-8.8222 -12.99299,-16.22454 -1.53557,-8.18525 12.0504,-50.98862 29.53739,-93.05926 3.81102,-9.16862 10.50004,-26.52883 14.86449,-38.57824 4.36446,-12.04941 9.09467,-24.76105 10.51159,-28.2481 1.41691,-3.48704 2.38377,-6.53251 2.14858,-6.76771 -0.2352,-0.23519 -2.82195,0.29332 -5.74834,1.17446 -2.9264,0.88114 -16.12072,2.96351 -29.32072,4.62748 -31.6523,3.99003 -35.60868,5.2891 -39.47751,12.96234 -1.97127,3.90971 -6.15419,17.8421 -8.55655,28.5 -0.86782,3.85 -5.1136,17.8 -9.43507,31 -9.6976,29.62145 -13.47291,42.56812 -16.01317,54.91396 -2.14524,10.42603 -4.93729,16.93745 -7.95522,18.5526 -2.43276,1.30198 -8.14606,1.33236 -11.48971,0.0611 -3.77238,-1.43426 -11.33389,-8.76391 -14.3493,-13.90932 -5.49863,-9.38271 -3.29152,-19.44692 19.40582,-88.4886 6.30495,-19.17864 11.33016,-34.9527 11.16713,-35.05349 -0.16303,-0.10078 -2.17597,-1.00015 -4.4732,-1.99861 -7.20685,-3.13233 -9.9226,-6.96577 -9.48166,-13.38388 0.19249,-2.80185 5.63352,-5.44084 14.94365,-7.2479 4.51115,-0.8756 6.81741,-1.89652 8.17072,-3.61697 1.03703,-1.31837 8.28037,-18.4692 16.09631,-38.11297 22.74369,-57.16158 31.34201,-77.32562 42.73389,-100.21593 5.88497,-11.825 10.92809,-22.625 11.20691,-24 0.33487,-1.65137 1.80777,-3.13531 4.33904,-4.37157 3.33471,-1.62866 4.54689,-1.72801 9.33967,-0.76548 3.02918,0.60834 7.81708,2.35055 10.63978,3.87156 11.20232,6.0364 12.59149,14.34514 4.21783,25.22733 -3.45986,4.49635 -5.54827,8.62745 -7.52297,14.88119 -2.88357,9.13212 -8.21913,21.65735 -14.81161,34.77022 -7.68436,15.28473 -20.45755,45.98761 -22.67302,54.49912 -2.37898,9.13969 -6.59037,20.93528 -9.68897,27.13763 l -1.87344,3.75 h 3.41025 c 1.87563,0 7.84728,-0.91911 13.27032,-2.04248 10.34376,-2.14266 29.29986,-3.87898 42.88757,-3.92835 5.64623,-0.0205 8.6941,-0.49608 10.2747,-1.60317 2.79358,-1.9567 7.99467,-12.1675 12.04301,-23.64291 3.90893,-11.0802 26.69468,-64.08394 52.66441,-122.50684 1.7936,-4.03498 4.99144,-4.92996 12.00611,-3.36015 C 949.72614,217.64868 962,231.28943 962,242.12712 c 0,2.91943 -1.05942,6.13416 -3.46195,10.50503 -1.90407,3.46403 -4.18135,8.9014 -5.06063,12.08304 -0.87927,3.18165 -10.96673,24.45981 -22.41656,47.28481 -20.02342,39.91625 -24.91445,50.47975 -23.86068,51.53352 0.26892,0.26891 6.79655,0.59071 14.50585,0.71512 10.34615,0.16695 14.42927,-0.11604 15.59152,-1.08062 2.43971,-2.02478 5.70245,0.17318 5.70245,3.84148 0,3.76556 -3.39755,5.62435 -12.68491,6.93989 -3.7483,0.53094 -9.90272,1.40274 -13.67649,1.93735 -3.79054,0.53698 -9.37598,2.23439 -12.47987,3.79263 -5.02706,2.52373 -6.01891,3.57419 -9.42279,9.97958 -5.762,10.84292 -24.0861,55.45627 -28.313,68.93316 -2.05414,6.54934 -8.44417,24.05789 -14.20008,38.90789 -5.75591,14.85 -13.35941,35.1 -16.89668,45 -3.53727,9.9 -7.55023,19.90999 -8.91768,22.24443 -4.18312,7.14118 -10.9129,9.05213 -18.9085,5.36914 z M 836.43387,512 l 0.6915,-2.5 -2.06026,2.5 c -1.93437,2.34725 -5.16896,11.07278 -4.97911,13.4315 0.10237,1.27188 5.35517,-9.84255 6.34787,-13.4315 z M 790.50354,345.08815 c 4.67835,-10.67652 8.33451,-19.58344 8.1248,-19.79315 -1.21641,-1.2164 -18.84911,39.08465 -18.56066,42.42196 0.085,0.98326 0.17088,0.797 10.43586,-22.62881 z m 1300.78616,212.8262 c -7.9809,-3.95049 -14.7023,-13.736 -17.9823,-26.1797 -1.8449,-6.99938 -2.349,-27.9146 -0.9936,-41.228 l 0.8137,-7.99335 -8.8137,8.5489 c -15.93,15.45127 -33.1352,28.79725 -41.6859,32.33552 -4.8583,2.01034 -14.5748,2.06912 -19.2482,0.11646 -13.3825,-5.59154 -20.5318,-21.53097 -19.0431,-42.45628 0.6914,-9.7179 3.4109,-20.45713 10.2153,-40.3403 2.5942,-7.58032 4.4511,-14.04792 4.1266,-14.37245 -0.924,-0.92398 -18.5761,2.32497 -20.27,3.73078 -0.8338,0.69199 -3.9622,5.34549 -6.9521,10.34111 -6.4456,10.76967 -19.9,28.45655 -22.2783,29.2866 -2.4661,0.86068 -8.1781,6.47302 -8.1781,8.03537 0,4.57786 -26.0731,24.37467 -37.225,28.26422 -11.4679,3.99976 -26.9261,1.95849 -37.7455,-4.98433 -6.7132,-4.30781 -15.4595,-13.94679 -18.9757,-20.91233 -4.9442,-9.79436 -6.3148,-16.18358 -5.8964,-27.48613 l 0.3747,-10.12044 9.099,-19.10617 c 5.0045,-10.50839 10.9573,-21.8426 13.2285,-25.18713 10.0008,-14.72682 23.6862,-25.89123 36.8177,-30.0356 3.9316,-1.24083 7.5781,-2.79944 8.1033,-3.46358 0.5253,-0.66414 2.3123,-4.90952 3.9711,-9.43419 5.19,-14.15619 18.7308,-30.66383 29.6095,-36.09692 6.5859,-3.28914 16.6396,-3.04668 23.7838,0.57359 6.1899,3.13667 18.4227,12.90707 19.3426,15.44908 0.3382,0.9345 1.8715,3.04433 3.4074,4.68851 8.4985,9.09772 7.9975,30.20866 -1.5167,63.90623 -1.4432,5.11161 -2.4213,9.49652 -2.1735,9.74427 0.2477,0.24774 5.2155,-0.50445 11.0395,-1.67152 l 10.5891,-2.12195 5.288,-8.12231 c 11.4128,-17.52968 25.3743,-27.95167 37.4852,-27.98201 9.3525,-0.0234 15.7198,3.55963 28.2302,15.88598 5.6853,5.60161 10.474,9.68726 10.6417,9.07923 0.1676,-0.60803 3.5131,-11.00551 7.4345,-23.10551 7.0265,-21.68112 15.5992,-43.99345 26.3189,-68.5 3.0072,-6.875 6.2506,-14.64571 7.2076,-17.26825 0.9569,-2.62253 2.4694,-5.49776 3.361,-6.38939 0.8916,-0.89163 3.5151,-5.8261 5.83,-10.96548 9.7976,-21.75237 28.6207,-41.68896 44.1826,-46.79629 13.9449,-4.5766 29.4126,-2.08212 37.5505,6.05577 5.2589,5.25886 6.9797,9.99274 7.4372,20.45963 0.567,12.97143 -1.923,22.58443 -10.2064,39.40401 -10.8379,22.00641 -34.0592,57.48511 -44.8342,68.5 -4.578,4.6799 -15.7602,19.59112 -15.7602,21.01586 0,0.62367 -7.2139,10.43773 -16.031,21.80904 -8.817,11.3713 -17.1012,22.9251 -18.4093,25.6751 -3.2047,6.7373 -5.0784,14.41513 -7.443,30.5 -1.0915,7.425 -2.9775,19.575 -4.191,27 -2.9378,17.97445 -3.2645,40.96484 -0.65,45.75 2.9193,5.34327 5.5451,4.46398 13.4384,-4.5 8.6584,-9.83298 15.2207,-18.49659 34.2747,-45.25 16.8112,-23.60421 31.7294,-43.46442 39.0927,-52.04304 3.1598,-3.68129 5.4783,-7.71176 6.9028,-12 3.2483,-9.77809 12.4139,-28.33449 18.4663,-37.38627 11.4599,-17.13888 22.1509,-27.80701 33.1035,-33.03257 20.5319,-9.79595 48.2531,-1.01571 52.4847,16.62368 3.6066,15.03384 -4.0537,32.01191 -22.324,49.47842 -16.0923,15.38436 -27.1799,22.75355 -41.2148,27.39287 -8.3124,2.7477 -10.5,4.82844 -10.5,9.98711 0,2.08925 -1.62,11.3769 -3.6001,20.63922 -4.3784,20.48165 -4.9285,31.80991 -1.7522,36.08201 4.296,5.77809 12.5115,3.52258 27.2404,-7.47865 11.724,-8.75678 29.7224,-26.75839 33.1675,-33.17331 1.651,-3.07421 6.5706,-10.01482 10.9324,-15.42357 4.3618,-5.40876 8.1454,-10.58376 8.4078,-11.5 0.2625,-0.91625 0.7789,-5.7159 1.1476,-10.6659 0.4484,-6.0187 1.7655,-12.31256 3.9762,-19 6.7605,-20.45066 14.7219,-42.2577 18.4659,-50.57984 2.123,-4.71891 4.1703,-10.34391 4.5495,-12.5 1.4227,-8.08918 6.0644,-11.45619 15.6829,-11.37627 9.0548,0.0753 15.3184,3.22496 18.4479,9.27674 2.2971,4.44219 0.795,8.26793 -6.1498,15.66235 -6.9518,7.40186 -8.0328,9.09374 -10.0115,15.66828 -0.752,2.4988 -2.5932,6.31224 -4.0915,8.47431 -1.4983,2.16207 -3.93,7.34707 -5.4037,11.52223 l -2.6794,7.59118 2.335,2.33506 c 3.3454,3.34532 2.9925,7.27742 -1.1387,12.6878 -1.9105,2.5022 -3.9245,6.50441 -4.4755,8.89381 -1.3228,5.73637 -1.3235,5.73156 0.6993,5.17942 1.9968,-0.54505 11.25,-13.41344 11.25,-15.64532 0,-2.20721 32.3671,-44.4461 47.7898,-62.3654 9.7542,-11.33329 19.7188,-14.97665 28.0912,-10.27106 6.287,3.53349 11.119,13.12364 11.119,22.06813 0,8.60029 -2.9234,13.42857 -21.8694,36.11991 -2.6366,3.15773 -7.1972,10.35773 -10.1348,16 l -5.3411,10.25867 4.6329,-5 c 5.1289,-5.53521 6.1373,-4.71744 2.0896,1.69456 -3.5369,5.60278 -11.5217,33.96863 -11.1563,39.6325 l 0.2791,4.32707 5.2627,-2.82707 c 2.8944,-1.55488 8.5035,-5.52706 12.4647,-8.82706 16.5575,-13.79407 46.5598,-40.43902 50.2726,-44.64707 7.2937,-8.26651 10.8809,-8.44304 12.1539,-0.59809 0.7705,4.74802 -1.9645,10.3764 -9.1315,18.7917 -3.0229,3.5494 -11.6688,14.32846 -19.2131,23.95346 -21.9303,27.97846 -33.4689,37.99941 -43.7556,38.00039 -4.8001,4.5e-4 -15.0693,-4.91312 -20.3779,-9.75039 -1.9616,-1.7875 -3.9386,-3.25 -4.3932,-3.25 -1.7152,0 -6.7377,-9.46651 -7.8402,-14.77722 -1.9679,-9.47975 2.0167,-40.89726 6.6207,-52.20098 4.0363,-9.91021 8.3598,-18.05497 9.8971,-18.64489 1.4428,-0.55365 2.151,-1.8835 3.6265,-6.80946 1.0713,-3.57655 1.0683,-3.57329 -8.576,9.43255 -4.2824,5.775 -10.3684,13.2 -13.5246,16.5 -5.4445,5.69275 -23.9217,33.08011 -31.0343,46 -4.1214,7.4863 -3.8853,7.22569 -4.9645,5.4794 -0.72,-1.16489 -1.1568,-1.2099 -2.1457,-0.22104 -1.5474,1.54741 -8.2385,1.61905 -11.1573,0.11945 -1.2014,-0.6172 -3.457,-2.3047 -5.0126,-3.75 l -2.8283,-2.62781 -1.9903,2.5 c -1.0947,1.375 -5.2627,6.325 -9.2623,11 -3.9997,4.675 -10.5985,13.225 -14.6642,19 -13.0266,18.5035 -32.6519,36.18705 -43.4266,39.13011 -16.321,4.45799 -39.3107,-7.8514 -48.1799,-25.797 -4.8406,-9.79427 -5.401,-18.39099 -2.3941,-36.72951 1.163,-7.09302 1.9444,-13.06649 1.7366,-13.27437 -1.1349,-1.13482 -15.0945,17.35008 -30.7142,40.67077 -24.6675,36.82921 -40.7998,55.89494 -51.8947,61.33136 -6.9057,3.38369 -14.6658,3.60157 -20.764,0.58299 z M 2032,500.24035 c 2.475,-1.40358 12.906,-10.86241 23.18,-21.01962 20.7076,-20.47225 21.8451,-22.18187 23.7684,-35.72073 0.625,-4.4 1.7992,-11.04417 2.6094,-14.76482 0.8101,-3.72065 1.1648,-7.99565 0.7882,-9.5 -1.0587,-4.23006 -8.5643,-15.3183 -13.1894,-19.48518 -4.9618,-4.47024 -8.4957,-4.85994 -11.3353,-1.25 -1.0815,1.375 -2.5762,2.5 -3.3215,2.5 -1.8503,0 -7.2453,9.12844 -15.4821,26.196 -7.7223,16.0017 -14.3033,32.53288 -13.4809,33.86358 0.2978,0.48181 -0.8032,5.278 -2.4466,10.65822 -5.8009,18.99136 -6.3142,27.61106 -1.8309,30.75123 2.5014,1.75206 4.4252,1.35286 10.7407,-2.22868 z m -138.2875,-13.38252 c 16.991,-6.28898 34.1525,-23.18106 48.8919,-48.1243 l 5.4154,-9.16441 -8.7599,-2.29994 c -17.0668,-4.48091 -28.0714,-12.05384 -32.6753,-22.48571 l -2.2748,-5.15454 -4.1183,6.93554 c -4.9704,8.3707 -18.2469,38.52596 -22.3571,50.78045 -3.0404,9.06477 -4.6108,20.42561 -3.4582,25.018 1.695,6.75336 8.7831,8.40104 19.3363,4.49491 z m 308.8865,-26.28591 c 1.3756,-6.56045 2.3531,-13.31045 2.1722,-15 -0.3111,-2.90407 -0.4192,-2.79872 -1.979,1.92808 -0.9075,2.75 -2.5256,7.475 -3.5957,10.5 -1.3058,3.69106 -2.1365,9.44678 -2.5256,17.5 l -0.5798,12 2.0033,-7.5 c 1.1019,-4.125 3.1289,-12.86764 4.5046,-19.42808 z m 49.6959,-41.83722 c 8.9775,-6.16984 17.5785,-14.31303 26.0378,-24.65171 6.3791,-7.79637 6.5082,-8.16072 8.1773,-23.08299 0.6956,-6.21967 -1.5776,-12.2266 -4.8589,-12.83943 -3.4051,-0.63596 -13.9217,11.83123 -20.9529,24.83943 -3.1668,5.85867 -17.6982,39.05835 -17.6982,40.43477 0,1.31398 2.0592,0.27272 9.2949,-4.70007 z m -301.5056,-1.34257 c 5.1827,-1.03653 9.6451,-13.2878 16.8057,-46.13844 4.5029,-20.65827 3.265,-33.60293 -3.5318,-36.93116 -2.9443,-1.44175 -7.615,0.19534 -13.0632,4.57872 -4.9173,3.95622 -14,16.14379 -14,18.78579 0,1.21293 -1.8266,5.71705 -4.0591,10.00915 -8.2022,15.76932 -11.5926,35.0062 -7.4159,42.0769 2.2326,3.77946 6.2582,5.88026 13.608,7.10139 7.1407,1.18641 8.0996,1.229 11.6563,0.51765 z m 180.3232,-21.02767 c 0.7465,-0.89954 1.3641,-2.25032 1.3724,-3.00174 0.01,-0.75141 2.7676,-4.85292 6.1318,-9.11446 18.0889,-22.91402 47.5225,-67.58563 58.015,-88.04991 8.1429,-15.88167 10.6817,-24.57379 10.7838,-36.92091 0.081,-9.78178 -0.03,-10.33725 -2.5705,-12.88226 -3.2692,-3.27497 -6.1658,-2.80429 -11.5039,1.86927 -6.708,5.8729 -21.7482,31.55062 -30.8889,52.73555 -10.4467,24.21198 -35.571,97 -33.4815,97 0.4314,0 1.3952,-0.73599 2.1418,-1.63554 z M 2111.5729,375.75 c 0.776,-2.0625 1.2011,-3.75 0.9447,-3.75 -0.991,0 -3.5136,6.01599 -3.4387,8.20034 0.048,1.40332 0.2747,1.715 0.581,0.79966 0.2761,-0.825 1.1369,-3.1875 1.913,-5.25 z m 439.5192,162.48871 c -4.4327,-2.44186 -9.097,-10.98399 -9.079,-16.62708 0.01,-2.2614 0.866,-8.16163 1.9084,-13.11163 1.0424,-4.95 4.2157,-20.025 7.0518,-33.5 7.3722,-35.02735 10.2828,-44.84123 17.5356,-59.12699 3.3827,-6.66284 5.8112,-14.10569 7.6262,-23.37301 0.5386,-2.75 3.1928,-10.6633 5.8982,-17.58511 2.7055,-6.92181 5.5915,-15.47181 6.4135,-19 3.1696,-13.60537 12.8765,-35.64752 17.663,-40.10852 1.7673,-1.64707 2.8902,-3.71242 2.8902,-5.31579 0,-1.44218 5.1232,-13.95505 11.3848,-27.80637 6.2617,-13.85131 12.6138,-28.10921 14.1157,-31.68421 5.2956,-12.60451 9.7413,-20.54842 13.991,-25 2.3628,-2.475 4.6122,-5.625 4.9986,-7 1.1399,-4.05528 8.3634,-15.78396 10.7512,-17.45646 1.212,-0.84895 3.8691,-1.54354 5.9045,-1.54354 5.052,0 8.8897,3.45933 12.3217,11.10699 2.4735,5.51155 2.7046,6.90862 2.1076,12.73653 -0.4767,4.6527 -1.705,8.51419 -4.2468,13.35121 -1.9668,3.7429 -3.974,6.80527 -4.4604,6.80527 -2.4449,0 -35.5817,77.5382 -45.4535,106.35877 -2.4401,7.12383 -4.3024,13.08656 -4.1385,13.25051 0.164,0.16395 2.9368,-4.51857 6.1619,-10.40559 13.4652,-24.57965 21.806,-36.69415 44.6624,-64.86943 5.2801,-6.50884 10.34,-13.26944 11.2443,-15.02356 0.9042,-1.75411 2.6468,-3.89161 3.8723,-4.75 1.2255,-0.85838 1.9265,-1.5607 1.5577,-1.5607 -0.3687,0 -0.2146,-1.30765 0.3425,-2.9059 1.0983,-3.15049 12.8864,-16.09289 33.383,-36.65196 21.0337,-21.09777 26.0898,-24.38901 37.5,-24.41041 12.4046,-0.0233 22.6594,7.43001 29.631,21.53625 4.1816,8.46075 5.194,16.59766 3.631,29.18202 -0.4953,3.9875 -0.5318,7.25 -0.081,7.25 1.4715,0 0.8837,2.67436 -3.7779,17.18762 -7.2769,22.65569 -14.4028,38.08654 -24.3574,52.74531 -11.5657,17.03125 -35.8408,43.97107 -50.0455,55.53914 -3.575,2.91141 -10.3079,7.19921 -14.962,9.52845 -4.6541,2.32924 -10.9316,6.24672 -13.95,8.70551 -7.4413,6.06164 -27.5914,17.87209 -38.588,22.61737 -12.817,5.53083 -20.6022,6.97692 -30.7264,5.70744 -4.4658,-0.55996 -8.2007,-0.90848 -8.2997,-0.77448 -2.5706,3.47957 -8.0471,15.59953 -10.5029,23.24364 -1.7669,5.5 -5.1605,15.44261 -7.5413,22.09468 -6.4356,17.98147 -11.0403,33.76139 -13.3612,45.78827 -1.1377,5.89522 -2.0685,10.92073 -2.0685,11.16781 0,0.24708 -0.3375,0.37915 -0.75,0.29348 -0.4125,-0.0857 -3,0.90615 -5.75,2.20405 -6.8516,3.2337 -17.6567,3.80772 -22.4079,1.19042 z M 2550,511.77432 c 0,-3.7774 -0.4991,-3.39588 -1.3413,1.02539 -0.3928,2.06175 -0.2591,3.07133 0.3564,2.69098 0.5417,-0.3348 0.9849,-2.00717 0.9849,-3.71637 z m 7.6831,-40.96182 c -0.3192,-0.79773 -0.5562,-0.56078 -0.6042,0.60417 -0.043,1.05416 0.193,1.64479 0.5253,1.3125 0.3323,-0.33229 0.3678,-1.1948 0.079,-1.91667 z m 6.2283,-17.20812 c 2.8219,-8.1926 4.9479,-15.0784 4.7245,-15.30179 C 2567.6088,437.2755 2558,463.8991 2558,467.772 c 0,2.67474 0.6314,1.16149 5.9114,-14.16762 z m 67.5811,-43.66503 c 4.204,-1.68336 8.1755,-2.87066 8.8256,-2.63846 2.0666,0.73819 29.0859,-15.83818 28.1869,-17.29273 -0.5201,-0.84164 2.763,-3.90885 14.3916,-13.44509 23.3776,-19.17121 52.702,-58.60363 64.7888,-87.12132 7.8141,-18.43637 11.4507,-38.69318 8.3912,-46.74027 -3.284,-8.63769 -15.6613,0.1102 -38.3158,27.08045 -34.4275,40.98601 -58.9054,73.9789 -66.5633,89.71807 -1.8732,3.85 -5.994,11.725 -9.1574,17.5 -9.9572,18.17757 -19.2105,36 -18.6911,36 0.2749,0 3.9395,-1.37729 8.1435,-3.06065 z m -1369.0467,-84.0522 c -2.7202,-1.71206 -11.0208,-9.06563 -18.4458,-16.34126 -7.425,-7.27563 -14.9625,-14.23049 -16.75,-15.45525 -3.7,-2.53518 -4.2831,-6.00574 -1.5,-8.92839 0.9625,-1.01076 2.2475,-2.69826 2.8556,-3.75 3.0879,-5.34101 15.1215,-7.78673 20.6121,-4.1892 2.3413,1.53413 3.7861,3.69303 12.5206,18.70962 1.781,3.06203 4.2165,8.48905 5.4123,12.06004 1.1957,3.57099 2.9993,7.84599 4.008,9.5 1.0165,1.66693 1.8356,4.90153 1.8377,7.25729 0,3.99051 -0.1675,4.25 -2.8005,4.25 -1.5423,0 -5.0298,-1.40078 -7.75,-3.11285 z M 1000,321.52283 c 0,-5.39103 3.9879,-14.75689 13.3822,-31.42942 4.7398,-8.41186 8.6178,-15.93523 8.6178,-16.7186 0,-2.36511 4.5825,-3.47685 9.6501,-2.34118 9.4932,2.12749 14.0025,6.15252 14.9936,13.38361 l 0.6585,4.80405 -11.9011,11.6626 C 1019.8266,316.14626 1008.0922,325 1003.4385,325 1000.1798,325 1000,324.81822 1000,321.52283 Z m 744,-37.94252 C 1744,282.46471 1754.9642,260 1755.5087,260 c 0.9711,0 -0.3858,3.65787 -5.2859,14.25 -2.4809,5.3625 -4.8958,9.75 -5.3667,9.75 -0.4709,0 -0.8561,-0.18886 -0.8561,-0.41969 z"
     id="path2019" />
</svg>